<svg width="20" height="20" viewBox="0 0 20 20" fill="none" xmlns="http://www.w3.org/2000/svg">
<g clip-path="url(#clip0_213_182)">
<path d="M15.8334 13.3333L15.8334 17.5C15.8334 17.9602 15.4603 18.3333 15 18.3333L5.00002 18.3333C4.53979 18.3333 4.16669 17.9602 4.16669 17.5L4.16669 11.9791L5.83335 12.9514L5.83335 16.6666L14.1667 16.6666L14.1667 13.3333L15.8334 13.3333ZM15.8334 9.68748L14.1667 8.71523L14.1667 4.99998L5.83335 4.99998L5.83335 8.33331L4.16669 8.33331L4.16669 4.16665C4.16669 3.7064 4.53979 3.33331 5.00002 3.33331L15 3.33331C15.4603 3.33331 15.8334 3.7064 15.8334 4.16665L15.8334 9.68748ZM7.50002 2.49998L7.50002 0.833313L12.5 0.833314L12.5 2.49998L7.50002 2.49998ZM9.16669 9.99998L9.16669 7.49998L15.8334 11.6666L10.8334 11.6666L10.8334 14.1666L4.16669 9.99998L9.16669 9.99998Z" fill="#988BC7"/>
</g>
<defs>
<clipPath id="clip0_213_182">
<rect width="20" height="20" fill="white" transform="translate(0 20) rotate(-90)"/>
</clipPath>
</defs>
</svg>
