<svg width="20" height="20" viewBox="0 0 20 20" fill="none" xmlns="http://www.w3.org/2000/svg">
<g clip-path="url(#clip0_213_184)">
<path d="M5.83332 16.6666L14.1667 16.6666L14.1667 4.99998L5.83332 4.99998L5.83332 16.6666ZM4.16666 17.5L4.16666 4.16665C4.16666 3.7064 4.53976 3.33331 4.99999 3.33331L15 3.33331C15.4602 3.33331 15.8333 3.7064 15.8333 4.16665L15.8333 17.5C15.8333 17.9602 15.4602 18.3333 15 18.3333L4.99999 18.3333C4.53976 18.3333 4.16666 17.9602 4.16666 17.5ZM6.66666 15.8333L6.66666 5.99994L13.3333 5.99994L13.3333 15.8333L6.66666 15.8333ZM7.49999 2.49998L7.49999 0.833313L12.5 0.833313L12.5 2.49998L7.49999 2.49998Z" fill="#988BC7"/>
</g>
<defs>
<clipPath id="clip0_213_184">
<rect width="20" height="20" fill="white" transform="translate(0 20) rotate(-90)"/>
</clipPath>
</defs>
</svg>
