<svg width="20" height="20" viewBox="0 0 20 20" fill="none" xmlns="http://www.w3.org/2000/svg">
<path d="M5.00008 15H15.0001V4.99996H5.00008V15ZM11.6667 16.6666H8.33341V18.3333H6.66675V16.6666H4.16675C3.70651 16.6666 3.33341 16.2935 3.33341 15.8333V13.3333H1.66675V11.6666H3.33341V8.33329H1.66675V6.66663H3.33341V4.16663C3.33341 3.70639 3.70651 3.33329 4.16675 3.33329H6.66675V1.66663H8.33341V3.33329H11.6667V1.66663H13.3334V3.33329H15.8334C16.2937 3.33329 16.6667 3.70639 16.6667 4.16663V6.66663H18.3334V8.33329H16.6667V11.6666H18.3334V13.3333H16.6667V15.8333C16.6667 16.2935 16.2937 16.6666 15.8334 16.6666H13.3334V18.3333H11.6667V16.6666ZM6.66675 6.66663H13.3334V13.3333H6.66675V6.66663Z" fill="#988BC7"/>
</svg>
