<svg width="28" height="28" viewBox="0 0 28 28" fill="none" xmlns="http://www.w3.org/2000/svg">
<rect width="28" height="28" rx="4" fill="#E1E1E6"/>
<path d="M20.6667 6.5V18.1667C20.6667 20.0076 19.1743 21.5 17.3333 21.5C15.4924 21.5 14 20.0076 14 18.1667C14 16.3257 15.4924 14.8333 17.3333 14.8333C17.9405 14.8333 18.5098 14.9957 19 15.2792V8.16667H11.5V18.1667C11.5 20.0076 10.0076 21.5 8.16668 21.5C6.32573 21.5 4.83334 20.0076 4.83334 18.1667C4.83334 16.3257 6.32573 14.8333 8.16668 14.8333C8.77382 14.8333 9.34305 14.9957 9.83334 15.2792V6.5H20.6667ZM8.16668 19.8333C9.08715 19.8333 9.83334 19.0872 9.83334 18.1667C9.83334 17.2462 9.08715 16.5 8.16668 16.5C7.2462 16.5 6.50001 17.2462 6.50001 18.1667C6.50001 19.0872 7.2462 19.8333 8.16668 19.8333ZM17.3333 19.8333C18.2538 19.8333 19 19.0872 19 18.1667C19 17.2462 18.2538 16.5 17.3333 16.5C16.4128 16.5 15.6667 17.2462 15.6667 18.1667C15.6667 19.0872 16.4128 19.8333 17.3333 19.8333Z" fill="#5A4B81"/>
</svg>
