<svg width="21" height="20" viewBox="0 0 21 20" fill="none" xmlns="http://www.w3.org/2000/svg">
<path d="M11.3335 3.33337H18.0001V5.00004H11.3335V3.33337ZM11.3335 9.16671H18.0001V10.8334H11.3335V9.16671ZM11.3335 15H18.0001V16.6667H11.3335V15ZM5.91679 15.8334C4.99631 15.8334 4.25012 15.0872 4.25012 14.1667C4.25012 13.2462 4.99631 12.5 5.91679 12.5C6.83726 12.5 7.58346 13.2462 7.58346 14.1667C7.58346 15.0872 6.83726 15.8334 5.91679 15.8334ZM5.91679 17.5C7.75774 17.5 9.25012 16.0076 9.25012 14.1667C9.25012 12.3258 7.75774 10.8334 5.91679 10.8334C4.07584 10.8334 2.58346 12.3258 2.58346 14.1667C2.58346 16.0076 4.07584 17.5 5.91679 17.5ZM4.66679 5.00004V7.50004H7.16679V5.00004H4.66679ZM3.00012 3.33337H8.83346V9.16671H3.00012V3.33337Z" fill="#E1E1E6"/>
</svg>
