<svg width="21" height="20" viewBox="0 0 21 20" fill="none" xmlns="http://www.w3.org/2000/svg">
<path d="M15.5001 14.9026V13.3333L19.6668 15.8333L15.5001 18.3333V16.5912C12.9354 16.2248 10.7095 14.5486 9.6692 12.121L9.66678 12.1155L9.66436 12.121C8.48255 14.8786 5.77101 16.6666 2.7708 16.6666H2.16678V15H2.7708C5.1043 15 7.21327 13.6093 8.13249 11.4645L8.76014 9.99996L8.13249 8.53546C7.21327 6.39061 5.1043 4.99996 2.7708 4.99996H2.16678V3.33329H2.7708C5.77101 3.33329 8.48255 5.12127 9.66436 7.8789L9.66678 7.88447L9.6692 7.8789C10.7095 5.45129 12.9354 3.77514 15.5001 3.40872V1.66663L19.6668 4.16663L15.5001 6.66663V5.09733C13.6056 5.44798 11.9782 6.72221 11.2011 8.53546L10.5734 9.99996L11.2011 11.4645C11.9782 13.2777 13.6056 14.552 15.5001 14.9026Z" fill="#E1E1E6"/>
</svg>
