<svg width="29" height="28" viewBox="0 0 29 28" fill="none" xmlns="http://www.w3.org/2000/svg">
<rect x="0.500122" width="28" height="28" rx="4" fill="#E1E1E6"/>
<path d="M19.5001 18.9026V17.3333L23.6668 19.8333L19.5001 22.3333V20.5912C16.9354 20.2248 14.7095 18.5486 13.6692 16.121L13.6668 16.1155L13.6644 16.121C12.4826 18.8786 9.77101 20.6666 6.7708 20.6666H6.16678V19H6.7708C9.1043 19 11.2133 17.6093 12.1325 15.4645L12.7601 14L12.1325 12.5355C11.2133 10.3906 9.1043 8.99996 6.7708 8.99996H6.16678V7.33329H6.7708C9.77101 7.33329 12.4826 9.12127 13.6644 11.8789L13.6668 11.8845L13.6692 11.8789C14.7095 9.45129 16.9354 7.77514 19.5001 7.40872V5.66663L23.6668 8.16663L19.5001 10.6666V9.09733C17.6056 9.44798 15.9782 10.7222 15.2011 12.5355L14.5734 14L15.2011 15.4645C15.9782 17.2777 17.6056 18.552 19.5001 18.9026Z" fill="#5A4B81"/>
</svg>
