<svg width="20" height="20" viewBox="0 0 20 20" fill="none" xmlns="http://www.w3.org/2000/svg">
<path d="M5.22088 3.17269L6.17673 4.53819C4.45743 5.74393 3.33348 7.74081 3.33348 10.0002C3.33348 13.6821 6.31824 16.6669 10.0001 16.6669C13.6821 16.6669 16.6668 13.6821 16.6668 10.0002C16.6668 7.74081 15.5428 5.74393 13.8236 4.53819L14.7794 3.17269C16.9286 4.67986 18.3335 7.17596 18.3335 10.0002C18.3335 14.6025 14.6025 18.3335 10.0001 18.3335C5.39777 18.3335 1.66681 14.6025 1.66681 10.0002C1.66681 7.17596 3.07176 4.67986 5.22088 3.17269ZM9.16681 10.0002V1.66687H10.8335V10.0002H9.16681Z" fill="#E1E1E6"/>
</svg>
