<svg width="20" height="20" viewBox="0 0 20 20" fill="none" xmlns="http://www.w3.org/2000/svg">
<path d="M10.0008 2.5C13.5711 2.5 16.85 3.74736 19.4256 5.83006L10.0008 17.5L0.575317 5.83059C3.15102 3.74757 6.43023 2.5 10.0008 2.5ZM10.0008 8.33333C8.41938 8.33333 6.93142 8.73383 5.63291 9.43892L10.0007 14.8474L14.3686 9.43883C13.0701 8.73375 11.5822 8.33333 10.0008 8.33333ZM10.0008 4.16667C7.47783 4.16667 5.06527 4.86821 2.98368 6.15982L4.57068 8.12378C6.16717 7.19719 8.02203 6.66667 10.0008 6.66667C11.9796 6.66667 13.8345 7.19722 15.4311 8.12386L17.0173 6.15943C14.9359 4.86806 12.5235 4.16667 10.0008 4.16667Z" fill="#988BC7"/>
</svg>
