<svg width="20" height="20" viewBox="0 0 20 20" fill="none" xmlns="http://www.w3.org/2000/svg">
<path d="M10.0009 2.5C13.5712 2.5 16.8501 3.74736 19.4257 5.83006L10.0009 17.5L0.575378 5.83059C3.15108 3.74757 6.43029 2.5 10.0009 2.5ZM10.0009 10C8.8171 10 7.69741 10.2743 6.70183 10.7627L10.0008 14.8474L13.2995 10.7625C12.304 10.2742 11.1844 10 10.0009 10ZM10.0009 4.16667C7.47789 4.16667 5.06533 4.86821 2.98374 6.15982L5.63252 9.43917C6.93114 8.73392 8.41919 8.33333 10.0009 8.33333C11.5824 8.33333 13.0703 8.73383 14.3688 9.43892L17.0174 6.15943C14.9359 4.86806 12.5236 4.16667 10.0009 4.16667Z" fill="#988BC7"/>
</svg>
