<svg width="20" height="20" viewBox="0 0 20 20" fill="none" xmlns="http://www.w3.org/2000/svg">
<path d="M2.34055 1.16132L17.0719 15.8927L15.8934 17.0712L12.8245 14.003L10.0009 17.5002L0.575378 5.83074C1.33715 5.21468 2.16046 4.6717 3.03465 4.21245L1.16205 2.33983L2.34055 1.16132ZM2.98374 6.15998L10.0008 14.8476L11.6395 12.8172L4.27679 5.45378C3.8336 5.66476 3.40199 5.90046 2.98374 6.15998ZM10.0009 2.50016C13.5712 2.50016 16.8501 3.74752 19.4257 5.83022L14.9204 11.4077L13.7354 10.2227L17.0174 6.15959C14.9359 4.86822 12.5236 4.16682 10.0009 4.16682C9.27352 4.16682 8.55535 4.22513 7.8516 4.33907L6.43796 2.92586C7.57999 2.64764 8.77319 2.50016 10.0009 2.50016Z" fill="#988BC7"/>
</svg>
