<svg width="20" height="20" viewBox="0 0 20 20" fill="none" xmlns="http://www.w3.org/2000/svg">
<path d="M10.0009 2.5C13.5712 2.5 16.8502 3.74736 19.4257 5.83006L10.0009 17.5L0.575439 5.83059C3.15114 3.74757 6.43035 2.5 10.0009 2.5ZM10.0009 12.5C9.42308 12.5 8.86142 12.5978 8.33391 12.7841L10.0008 14.8474L11.6671 12.7833C11.1426 12.6 10.5787 12.5 10.0009 12.5ZM10.0009 4.16667C7.47795 4.16667 5.06539 4.86821 2.9838 6.15982L7.2412 11.4296C8.08215 11.0467 9.01667 10.8333 10.0009 10.8333C10.9852 10.8333 11.9198 11.0467 12.7607 11.4296L17.0174 6.15943C14.936 4.86806 12.5237 4.16667 10.0009 4.16667Z" fill="#988BC7"/>
</svg>
