<svg width="11" height="14" viewBox="0 0 11 14" fill="none" xmlns="http://www.w3.org/2000/svg">
<path d="M10.8752 8.57681C11.3091 10.4109 10.5952 11.8624 8.98548 13.0763C8.43957 13.4854 7.82366 13.7625 7.15176 13.9604C7.09576 13.9736 7.02577 14 6.96978 14C7.57169 13.7757 8.11761 13.4062 8.59354 12.8784C9.60139 11.77 9.65738 10.3582 8.92949 9.1442C7.87965 7.41564 6.70382 5.9246 5.514 4.09048C5.5 4.09048 5.5 4.09048 5.5 4.10368C5.5 4.10368 5.5 4.10368 5.486 4.09048C4.29618 5.9246 3.12035 7.41564 2.07051 9.1442C1.34261 10.3582 1.39861 11.77 2.40646 12.8784C2.88239 13.4062 3.42831 13.7757 4.03022 14C3.96023 14 3.90424 13.9736 3.84824 13.9604C3.14835 13.7625 2.53244 13.459 2.01451 13.0763C0.404752 11.8624 -0.309142 10.4109 0.124794 8.57681C0.348761 7.62677 0.838688 6.79548 1.39861 5.99057C2.50444 4.36758 3.66627 2.81056 4.73011 1.16117C4.96808 0.778511 5.23404 0.409048 5.5 0C5.76596 0.409048 6.03192 0.778511 6.26989 1.16117C7.33373 2.81056 8.48156 4.36758 9.60139 5.99057C10.1473 6.79548 10.6512 7.62677 10.8752 8.57681ZM7.16575 12.3374C6.73182 12.852 6.1719 13.1555 5.5 13.1687C4.8281 13.1555 4.26818 12.852 3.82025 12.3374C3.27433 11.6909 3.24633 10.9651 3.63827 10.2394C4.21219 9.23657 4.8421 8.28652 5.5 7.23091C6.1579 8.28652 6.78781 9.23657 7.34773 10.2394C7.75367 10.9651 7.72567 11.6909 7.16575 12.3374Z" fill="#EF641F"/>
</svg>
