<svg width="23" height="30" viewBox="0 0 23 30" fill="none" xmlns="http://www.w3.org/2000/svg">
<path d="M22.7391 18.3789C23.6464 22.3091 22.1537 25.4194 18.7878 28.0207C17.6464 28.8973 16.3586 29.491 14.9537 29.9152C14.8366 29.9434 14.6903 30 14.5732 30C15.8317 29.5193 16.9732 28.7276 17.9683 27.5966C20.0756 25.2215 20.1927 22.196 18.6708 19.5947C16.4756 15.8907 14.0171 12.6956 11.5293 8.76532C11.5 8.76532 11.5 8.76532 11.5 8.79359C11.5 8.79359 11.5 8.79359 11.4707 8.76532C8.98292 12.6956 6.52437 15.8907 4.32924 19.5947C2.80728 22.196 2.92436 25.2215 5.03168 27.5966C6.02681 28.7276 7.16828 29.5193 8.42682 30C8.28047 30 8.1634 29.9434 8.04633 29.9152C6.58291 29.491 5.2951 28.8407 4.21217 28.0207C0.8463 25.4194 -0.646388 22.3091 0.260932 18.3789C0.729227 16.3431 1.75362 14.5617 2.92436 12.8369C5.23656 9.3591 7.66584 6.02262 9.89024 2.48822C10.3878 1.66824 10.9439 0.876532 11.5 0C12.0561 0.876532 12.6122 1.66824 13.1098 2.48822C15.3342 6.02262 17.7342 9.3591 20.0756 12.8369C21.2171 14.5617 22.2708 16.3431 22.7391 18.3789ZM14.9829 26.4373C14.0756 27.5401 12.9049 28.1904 11.5 28.2187C10.0951 28.1904 8.92438 27.5401 7.98779 26.4373C6.84632 25.0518 6.78779 23.4967 7.6073 21.9416C8.80731 19.7926 10.1244 17.7568 11.5 15.4948C12.8756 17.7568 14.1927 19.7926 15.3634 21.9416C16.2122 23.4967 16.1537 25.0518 14.9829 26.4373Z" fill="#EF641F"/>
</svg>
