<svg width="20" height="20" viewBox="0 0 20 20" fill="none" xmlns="http://www.w3.org/2000/svg">
<path d="M16.7362 12.6665L17.7379 13.2676C17.9352 13.386 17.9992 13.6419 17.8808 13.8393C17.8456 13.8978 17.7965 13.9469 17.7379 13.9822L10.4287 18.3676C10.1648 18.5259 9.83517 18.5259 9.57125 18.3676L2.26217 13.9822C2.06485 13.8638 2.00086 13.6078 2.11926 13.4105C2.15444 13.3518 2.20352 13.3028 2.26217 13.2676L3.26392 12.6665L10 16.7082L16.7362 12.6665ZM16.7362 8.74984L17.7379 9.35092C17.9352 9.46934 17.9992 9.72525 17.8808 9.92259C17.8456 9.98117 17.7965 10.0303 17.7379 10.0655L10 14.7082L2.26217 10.0655C2.06485 9.94709 2.00086 9.69117 2.11926 9.49384C2.15444 9.43517 2.20352 9.38609 2.26217 9.35092L3.26392 8.74984L10 12.7915L16.7362 8.74984ZM10.4287 1.09044L17.7379 5.4759C17.9352 5.59429 17.9992 5.85024 17.8808 6.04756C17.8456 6.10621 17.7965 6.15529 17.7379 6.19048L10 10.8332L2.26217 6.19048C2.06485 6.07209 2.00086 5.81614 2.11926 5.61882C2.15444 5.56017 2.20352 5.51109 2.26217 5.4759L9.57125 1.09044C9.83517 0.932094 10.1648 0.932094 10.4287 1.09044ZM10 2.77684L4.90611 5.83319L10 8.8895L15.0939 5.83319L10 2.77684Z" fill="#988BC7"/>
</svg>
