<svg width="31" height="30" viewBox="0 0 31 30" fill="none" xmlns="http://www.w3.org/2000/svg">
<path d="M29.2056 9.17505C29.9903 11.0161 30.3827 12.9779 30.3827 15C30.3827 17.0221 29.9903 18.9839 29.2056 20.8551C28.4511 22.6358 27.3646 24.2354 26.0064 25.5936C24.5879 27.0121 23.0185 28.0684 21.2378 28.8229C19.3666 29.6076 17.4048 30 15.3827 30C13.3304 30 11.3988 29.6076 9.55774 28.8229C7.77706 28.0684 6.17746 27.0121 4.78913 25.5936C3.37062 24.2354 2.34446 22.666 1.58993 20.8551C0.775045 18.9537 0.38269 16.9919 0.38269 15C0.38269 13.008 0.775045 11.0765 1.58993 9.17505C2.34446 7.36418 3.37062 5.76459 4.78913 4.40644C6.17746 3.01811 7.77706 1.93159 9.55774 1.17706C11.3988 0.422535 13.3304 0 15.3827 0C17.435 0 19.3364 0.422535 21.2378 1.17706C23.0185 1.93159 24.5879 3.01811 26.0064 4.40644C27.3646 5.76459 28.4511 7.36418 29.2056 9.17505ZM15.2318 2.08249C8.25995 2.08249 3.06881 7.30382 2.49537 13.9135H2.52555V13.7324L2.55573 13.6419V13.5815L2.61609 13.2495L2.67645 13.0684L2.70663 12.9175L2.79718 12.5855C2.79718 12.495 2.82736 12.495 2.82736 12.4044L2.88772 12.2535L2.9179 12.0724C2.94808 12.0423 2.94808 12.0121 2.97826 11.9215C3.31026 11.0463 3.64225 10.2314 4.12515 9.4165C4.60804 8.60161 5.21166 7.93763 5.84547 7.24346C6.53963 6.5493 7.2338 6.00604 8.04869 5.52314C8.86358 5.01006 9.70864 4.64789 10.5839 4.3159L10.9159 4.22535L11.097 4.16499L11.2781 4.13481L11.6101 4.04427L11.9722 3.95372C12.0326 3.95372 12.093 3.95372 12.1231 3.92354L12.3042 3.89336C12.4249 3.89336 12.5457 3.86318 12.6664 3.86318L13.0286 3.833C13.1191 3.833 13.1493 3.80282 13.1795 3.80282H13.3606C13.4813 3.80282 13.602 3.77264 13.7227 3.77264H14.0849C14.2056 3.77264 14.3264 3.80282 14.4471 3.80282H14.598C14.6885 3.80282 14.7489 3.80282 14.7791 3.833C15.0205 3.833 15.262 3.86318 15.4732 3.89336C15.5034 3.92354 15.5638 3.92354 15.6543 3.92354L15.7449 3.95372H15.8354L16.1674 4.04427H16.2579C16.2881 4.04427 16.3183 4.07445 16.3485 4.07445C16.439 4.07445 16.4088 4.10463 16.4994 4.10463L16.6805 4.16499H16.771L16.8314 4.19517C16.9823 4.22535 17.103 4.28571 17.1634 4.3159H17.2539L17.3445 4.34608C17.435 4.37626 17.4652 4.40644 17.4954 4.40644C17.5859 4.43662 17.6463 4.4668 17.6765 4.4668L17.7368 4.49698L17.8274 4.52716C17.9179 4.61771 18.0386 4.58752 18.1292 4.67807L18.2197 4.70825L18.3103 4.73843C18.3404 4.76861 18.4008 4.79879 18.4612 4.79879C18.4913 4.82897 18.5215 4.85915 18.6121 4.88934L18.6724 4.91952L18.763 4.9497C20.3626 5.79477 21.7207 6.97183 22.6865 8.39034C23.1694 9.08451 23.5618 9.80885 23.8334 10.5634C23.8636 10.6539 23.8938 10.6841 23.8938 10.7143L23.9541 10.835L24.0447 11.1368L24.105 11.2575C24.105 11.3481 24.1352 11.3783 24.1352 11.4084L24.2257 11.7103C24.2559 11.831 24.2861 11.9215 24.2861 11.9819L24.3767 12.2837C24.3767 12.3742 24.4068 12.4648 24.4068 12.5855L24.437 12.6459V12.7062C24.437 12.7968 24.4672 12.827 24.4672 12.8571C24.5577 13.672 24.5879 14.3964 24.4974 15.1207C24.4068 15.8451 24.2861 16.5091 24.0748 17.1429C23.8636 17.7465 23.5919 18.3199 23.3203 18.833C22.9883 19.3159 22.7167 19.7686 22.3847 20.161C22.3545 20.2213 22.264 20.3119 22.1433 20.4326L21.9018 20.7344L21.6302 20.9759L21.4793 21.0966C21.4491 21.1871 21.3887 21.1569 21.3585 21.2475L21.2076 21.3682L21.0567 21.4889C20.9662 21.5795 20.8756 21.6097 20.7851 21.7002L20.4833 21.9115C20.3626 22.002 20.2418 22.0926 20.1513 22.1227C20.1211 22.1529 20.0608 22.1831 20.0306 22.1831C20.4229 22.0624 20.8153 21.9115 21.1775 21.7002C21.8414 21.3682 22.4451 20.9759 22.9581 20.5231C23.5316 20.0101 24.0447 19.4668 24.437 18.9235C24.8897 18.3501 25.1915 17.7163 25.5235 17.0221C25.5235 16.992 25.5537 16.9316 25.5537 16.9014L25.6141 16.7807L25.6744 16.66C25.6744 16.5694 25.7046 16.5996 25.7046 16.5091L25.7952 16.2676L25.8253 16.1167L25.8857 15.996L25.9461 15.7243C25.9461 15.7243 25.9461 15.6942 25.9763 15.664V15.6036L26.0064 15.4527C26.0366 15.3622 26.0668 15.3018 26.0668 15.2113L26.1272 14.9396L26.1573 14.7887V14.668L26.2177 14.3964V14.1247C26.2479 14.0644 26.2479 13.9738 26.2479 13.8531V13.5815L26.2781 13.4306V13.3702V13.3099C26.2781 13.1891 26.2781 13.0986 26.2479 13.0382V12.8873V12.7666C26.2479 12.5553 26.2177 12.4346 26.2177 12.2233C26.1875 12.163 26.1875 12.0724 26.1875 11.9517C26.1573 11.9215 26.1573 11.8913 26.1573 11.831L26.1272 11.6801C26.1272 11.5895 26.097 11.499 26.097 11.4084C26.0668 11.3179 26.0366 11.2575 26.0366 11.167C26.0064 11.0463 25.9763 10.9557 25.9763 10.8954L25.8857 10.6237L25.765 10.2012C25.6141 9.71831 25.433 9.26559 25.2217 8.87324C24.8897 8.20925 24.5276 7.60563 24.1352 7.09255C24.105 7.03219 24.0748 6.97183 23.9843 6.88129C23.9541 6.79074 23.8938 6.73038 23.8334 6.67002L23.6825 6.48893C23.5919 6.39839 23.5618 6.36821 23.5316 6.27767L22.8374 5.55332L22.1131 4.88934C21.8716 4.67807 21.6302 4.52716 21.3585 4.3159C20.3022 3.59155 19.3062 3.07847 18.2499 2.7163C18.2197 2.7163 18.1593 2.68612 18.1292 2.68612C18.099 2.65594 18.0688 2.65594 18.0386 2.65594C17.9481 2.62575 17.8877 2.59557 17.8575 2.59557L17.6765 2.53521C17.6463 2.53521 17.6463 2.50503 17.5557 2.50503C17.5255 2.50503 17.4954 2.47485 17.4652 2.47485C17.435 2.47485 17.3746 2.44467 17.2841 2.41449C17.1936 2.41449 17.1936 2.38431 17.103 2.38431L16.7408 2.29376C16.2579 2.20322 15.262 2.08249 15.2318 2.08249ZM21.1775 15C21.1775 11.9215 18.6724 9.4165 15.594 9.4165C12.4853 9.4165 9.98028 11.9215 9.98028 15C9.98028 18.0785 12.4853 20.5835 15.594 20.5835C18.6724 20.5835 21.1775 18.0785 21.1775 15ZM15.4431 27.9175H15.5638C22.5658 28.159 27.6966 22.6962 28.27 16.0865V16.1167L28.2398 16.2676V16.3581C28.2398 16.3883 28.2096 16.4185 28.2096 16.4487C28.2096 16.5091 28.1795 16.6298 28.1493 16.7807L28.1191 16.9316L28.0889 17.1127L27.9984 17.4447C27.9984 17.4748 27.9682 17.505 27.938 17.5956L27.8475 17.9276C27.8475 18.0181 27.8173 18.0483 27.8173 18.0785C27.5155 18.9839 27.1231 19.829 26.6402 20.5835C26.1573 21.3682 25.5839 22.0926 24.9199 22.7565C24.2257 23.4507 23.5316 24.0241 22.7167 24.507C21.9622 24.9899 21.1171 25.3823 20.2117 25.6841C20.0608 25.7143 19.94 25.7746 19.8495 25.8048C19.7589 25.8048 19.7891 25.835 19.6986 25.835L19.5175 25.8954L19.1855 25.9859C19.095 25.9859 18.9742 26.0161 18.8233 26.0463C18.7328 26.0463 18.7328 26.0765 18.6422 26.0765L18.4612 26.1066C18.3404 26.1066 18.2499 26.1368 18.1292 26.167C17.9783 26.167 17.8575 26.167 17.767 26.1972H17.5859H17.4048C17.3143 26.2274 17.1936 26.2274 17.0426 26.2274H16.7107C16.5597 26.2274 16.439 26.2274 16.3485 26.1972H16.1674H15.9863L15.2921 26.1066C15.2016 26.1066 15.2016 26.0765 15.1111 26.0765H15.0507C15.0205 26.0765 14.9903 26.0463 14.9602 26.0463L14.598 25.9859L14.5376 25.9557H14.4471L14.266 25.8954C14.1754 25.8954 14.2056 25.8652 14.1151 25.8652L14.0245 25.835L13.934 25.8048L13.602 25.7143L13.5115 25.6841L13.4511 25.6539L13.27 25.5936C13.2398 25.5634 13.2097 25.5634 13.1191 25.5332L13.0286 25.503L12.9682 25.4728L12.6362 25.3521L12.5758 25.3219L12.4853 25.2616C12.4551 25.2616 12.4249 25.2314 12.3344 25.2012C12.2439 25.171 12.2137 25.1408 12.1835 25.1408L12.093 25.0805L12.0326 25.0503C10.3726 24.2354 9.04466 23.0282 8.10905 21.6097C7.62615 20.9155 7.2338 20.1911 6.93199 19.4366L6.87162 19.3159C6.87162 19.2254 6.84144 19.1952 6.84144 19.165C6.81126 19.1046 6.7509 19.0141 6.72072 18.8934C6.72072 18.8028 6.69054 18.833 6.69054 18.7425C6.66036 18.7123 6.66036 18.7123 6.66036 18.6821V18.6519C6.63018 18.5614 6.59999 18.5312 6.59999 18.501C6.59999 18.4105 6.56981 18.4406 6.56981 18.3501L6.47927 18.0785L6.38873 17.7767C6.38873 17.7465 6.35854 17.6258 6.32836 17.4748C6.32836 17.4145 6.29818 17.3239 6.268 17.2032V17.1127V17.0523C6.23782 17.0221 6.23782 16.9618 6.23782 16.9014C6.14728 16.1469 6.1171 15.3622 6.20764 14.668C6.268 13.9738 6.41891 13.2797 6.63017 12.6459C6.84144 11.9517 7.11307 11.4084 7.3847 10.9557C7.71669 10.4125 8.0185 9.95976 8.32032 9.59758C8.3505 9.53722 8.44104 9.44668 8.56176 9.32596L8.80321 9.05433L9.07484 8.7827L9.22575 8.66197L9.34647 8.54125L9.49738 8.42052C9.52756 8.39034 9.55774 8.32998 9.64828 8.2998L9.91991 8.05835C10.0406 7.99799 10.1312 7.93763 10.2217 7.84708C10.3424 7.75654 10.433 7.75654 10.5537 7.666L10.6744 7.57545C10.2821 7.72636 9.88973 7.84708 9.52756 8.05835C8.89376 8.39034 8.32032 8.7827 7.74688 9.26559C7.17343 9.71831 6.69054 10.2616 6.268 10.835C5.84547 11.4386 5.48329 12.0724 5.18148 12.7364C5.18148 12.827 5.1513 12.827 5.1513 12.8571L5.09094 13.008L5.03058 13.1288C5.03058 13.159 5.0004 13.2193 5.0004 13.2495L4.90985 13.5211L4.84949 13.6419L4.81931 13.7626C4.78913 13.8833 4.75895 13.9738 4.75895 14.0342C4.72877 14.0644 4.72877 14.0644 4.72877 14.0946V14.1851L4.69859 14.3058C4.6684 14.4266 4.63822 14.5171 4.63822 14.5775C4.60804 14.6982 4.57786 14.7887 4.57786 14.8491L4.54768 14.9698C4.54768 15.0302 4.54768 15.0905 4.5175 15.1207C4.5175 15.2414 4.5175 15.332 4.48732 15.3924C4.48732 15.5131 4.48732 15.6036 4.45714 15.664V15.9356C4.45714 16.0563 4.45714 16.1469 4.42696 16.2072V16.328V16.3883V16.4789V16.7505V16.8712C4.42696 16.9618 4.45714 16.9316 4.45714 17.0221C4.45714 17.2334 4.45714 17.3843 4.48732 17.5352C4.5175 17.5956 4.5175 17.6861 4.5175 17.8068C4.5175 17.8974 4.54768 17.8672 4.54768 17.9577L4.57786 18.0785C4.57786 18.169 4.60804 18.2596 4.60804 18.3501C4.63822 18.4708 4.6684 18.5614 4.6684 18.6217L4.72877 18.8632C4.75895 18.9839 4.78913 19.0744 4.78913 19.1348C5.0004 19.829 5.24185 20.493 5.57384 21.1268C5.90583 21.8209 6.23782 22.3642 6.63017 22.9376C6.72072 23.0282 6.69054 23.0583 6.78108 23.1489L6.93199 23.33L7.11307 23.5412L7.26398 23.7223C7.44506 23.9638 7.68651 24.2052 7.95814 24.4467C8.13923 24.6579 8.38068 24.8692 8.68249 25.1107C8.92394 25.3219 9.16539 25.4728 9.40683 25.6841C10.433 26.4084 11.4893 26.9517 12.5457 27.2837L12.6362 27.3441C12.6664 27.3441 12.6966 27.3441 12.7268 27.3742C12.7871 27.3742 12.8475 27.4044 12.938 27.4346C13.0286 27.4346 13.0286 27.4648 13.1191 27.4648C13.1493 27.495 13.1795 27.495 13.2097 27.495C13.2398 27.5252 13.27 27.5251 13.3002 27.5251L13.4813 27.5855C13.5718 27.5855 13.602 27.6157 13.6925 27.6157L14.0547 27.7062C14.5376 27.827 14.9903 27.8873 15.4431 27.9175Z" fill="#A371C2"/>
<path d="M29.2056 9.17505C29.9903 11.0161 30.3827 12.9779 30.3827 15C30.3827 17.0221 29.9903 18.9839 29.2056 20.8551C28.4511 22.6358 27.3646 24.2354 26.0064 25.5936C24.5879 27.0121 23.0185 28.0684 21.2378 28.8229C19.3666 29.6076 17.4048 30 15.3827 30C13.3304 30 11.3988 29.6076 9.55774 28.8229C7.77706 28.0684 6.17746 27.0121 4.78913 25.5936C3.37062 24.2354 2.34446 22.666 1.58993 20.8551C0.775045 18.9537 0.38269 16.9919 0.38269 15C0.38269 13.008 0.775045 11.0765 1.58993 9.17505C2.34446 7.36418 3.37062 5.76459 4.78913 4.40644C6.17746 3.01811 7.77706 1.93159 9.55774 1.17706C11.3988 0.422535 13.3304 0 15.3827 0C17.435 0 19.3364 0.422535 21.2378 1.17706C23.0185 1.93159 24.5879 3.01811 26.0064 4.40644C27.3646 5.76459 28.4511 7.36418 29.2056 9.17505ZM15.2318 2.08249C8.25995 2.08249 3.06881 7.30382 2.49537 13.9135H2.52555V13.7324L2.55573 13.6419V13.5815L2.61609 13.2495L2.67645 13.0684L2.70663 12.9175L2.79718 12.5855C2.79718 12.495 2.82736 12.495 2.82736 12.4044L2.88772 12.2535L2.9179 12.0724C2.94808 12.0423 2.94808 12.0121 2.97826 11.9215C3.31026 11.0463 3.64225 10.2314 4.12515 9.4165C4.60804 8.60161 5.21166 7.93763 5.84547 7.24346C6.53963 6.5493 7.2338 6.00604 8.04869 5.52314C8.86358 5.01006 9.70864 4.64789 10.5839 4.3159L10.9159 4.22535L11.097 4.16499L11.2781 4.13481L11.6101 4.04427L11.9722 3.95372C12.0326 3.95372 12.093 3.95372 12.1231 3.92354L12.3042 3.89336C12.4249 3.89336 12.5457 3.86318 12.6664 3.86318L13.0286 3.833C13.1191 3.833 13.1493 3.80282 13.1795 3.80282H13.3606C13.4813 3.80282 13.602 3.77264 13.7227 3.77264H14.0849C14.2056 3.77264 14.3264 3.80282 14.4471 3.80282H14.598C14.6885 3.80282 14.7489 3.80282 14.7791 3.833C15.0205 3.833 15.262 3.86318 15.4732 3.89336C15.5034 3.92354 15.5638 3.92354 15.6543 3.92354L15.7449 3.95372H15.8354L16.1674 4.04427H16.2579C16.2881 4.04427 16.3183 4.07445 16.3485 4.07445C16.439 4.07445 16.4088 4.10463 16.4994 4.10463L16.6805 4.16499H16.771L16.8314 4.19517C16.9823 4.22535 17.103 4.28571 17.1634 4.3159H17.2539L17.3445 4.34608C17.435 4.37626 17.4652 4.40644 17.4954 4.40644C17.5859 4.43662 17.6463 4.4668 17.6765 4.4668L17.7368 4.49698L17.8274 4.52716C17.9179 4.61771 18.0386 4.58752 18.1292 4.67807L18.2197 4.70825L18.3103 4.73843C18.3404 4.76861 18.4008 4.79879 18.4612 4.79879C18.4913 4.82897 18.5215 4.85915 18.6121 4.88934L18.6724 4.91952L18.763 4.9497C20.3626 5.79477 21.7207 6.97183 22.6865 8.39034C23.1694 9.08451 23.5618 9.80885 23.8334 10.5634C23.8636 10.6539 23.8938 10.6841 23.8938 10.7143L23.9541 10.835L24.0447 11.1368L24.105 11.2575C24.105 11.3481 24.1352 11.3783 24.1352 11.4084L24.2257 11.7103C24.2559 11.831 24.2861 11.9215 24.2861 11.9819L24.3767 12.2837C24.3767 12.3742 24.4068 12.4648 24.4068 12.5855L24.437 12.6459V12.7062C24.437 12.7968 24.4672 12.827 24.4672 12.8571C24.5577 13.672 24.5879 14.3964 24.4974 15.1207C24.4068 15.8451 24.2861 16.5091 24.0748 17.1429C23.8636 17.7465 23.5919 18.3199 23.3203 18.833C22.9883 19.3159 22.7167 19.7686 22.3847 20.161C22.3545 20.2213 22.264 20.3119 22.1433 20.4326L21.9018 20.7344L21.6302 20.9759L21.4793 21.0966C21.4491 21.1871 21.3887 21.1569 21.3585 21.2475L21.2076 21.3682L21.0567 21.4889C20.9662 21.5795 20.8756 21.6097 20.7851 21.7002L20.4833 21.9115C20.3626 22.002 20.2418 22.0926 20.1513 22.1227C20.1211 22.1529 20.0608 22.1831 20.0306 22.1831C20.4229 22.0624 20.8153 21.9115 21.1775 21.7002C21.8414 21.3682 22.4451 20.9759 22.9581 20.5231C23.5316 20.0101 24.0447 19.4668 24.437 18.9235C24.8897 18.3501 25.1915 17.7163 25.5235 17.0221C25.5235 16.992 25.5537 16.9316 25.5537 16.9014L25.6141 16.7807L25.6744 16.66C25.6744 16.5694 25.7046 16.5996 25.7046 16.5091L25.7952 16.2676L25.8253 16.1167L25.8857 15.996L25.9461 15.7243C25.9461 15.7243 25.9461 15.6942 25.9763 15.664V15.6036L26.0064 15.4527C26.0366 15.3622 26.0668 15.3018 26.0668 15.2113L26.1272 14.9396L26.1573 14.7887V14.668L26.2177 14.3964V14.1247C26.2479 14.0644 26.2479 13.9738 26.2479 13.8531V13.5815L26.2781 13.4306V13.3702V13.3099C26.2781 13.1891 26.2781 13.0986 26.2479 13.0382V12.8873V12.7666C26.2479 12.5553 26.2177 12.4346 26.2177 12.2233C26.1875 12.163 26.1875 12.0724 26.1875 11.9517C26.1573 11.9215 26.1573 11.8913 26.1573 11.831L26.1272 11.6801C26.1272 11.5895 26.097 11.499 26.097 11.4084C26.0668 11.3179 26.0366 11.2575 26.0366 11.167C26.0064 11.0463 25.9763 10.9557 25.9763 10.8954L25.8857 10.6237L25.765 10.2012C25.6141 9.71831 25.433 9.26559 25.2217 8.87324C24.8897 8.20925 24.5276 7.60563 24.1352 7.09255C24.105 7.03219 24.0748 6.97183 23.9843 6.88129C23.9541 6.79074 23.8938 6.73038 23.8334 6.67002L23.6825 6.48893C23.5919 6.39839 23.5618 6.36821 23.5316 6.27767L22.8374 5.55332L22.1131 4.88934C21.8716 4.67807 21.6302 4.52716 21.3585 4.3159C20.3022 3.59155 19.3062 3.07847 18.2499 2.7163C18.2197 2.7163 18.1593 2.68612 18.1292 2.68612C18.099 2.65594 18.0688 2.65594 18.0386 2.65594C17.9481 2.62575 17.8877 2.59557 17.8575 2.59557L17.6765 2.53521C17.6463 2.53521 17.6463 2.50503 17.5557 2.50503C17.5255 2.50503 17.4954 2.47485 17.4652 2.47485C17.435 2.47485 17.3746 2.44467 17.2841 2.41449C17.1936 2.41449 17.1936 2.38431 17.103 2.38431L16.7408 2.29376C16.2579 2.20322 15.262 2.08249 15.2318 2.08249ZM21.1775 15C21.1775 11.9215 18.6724 9.4165 15.594 9.4165C12.4853 9.4165 9.98028 11.9215 9.98028 15C9.98028 18.0785 12.4853 20.5835 15.594 20.5835C18.6724 20.5835 21.1775 18.0785 21.1775 15ZM15.4431 27.9175H15.5638C22.5658 28.159 27.6966 22.6962 28.27 16.0865V16.1167L28.2398 16.2676V16.3581C28.2398 16.3883 28.2096 16.4185 28.2096 16.4487C28.2096 16.5091 28.1795 16.6298 28.1493 16.7807L28.1191 16.9316L28.0889 17.1127L27.9984 17.4447C27.9984 17.4748 27.9682 17.505 27.938 17.5956L27.8475 17.9276C27.8475 18.0181 27.8173 18.0483 27.8173 18.0785C27.5155 18.9839 27.1231 19.829 26.6402 20.5835C26.1573 21.3682 25.5839 22.0926 24.9199 22.7565C24.2257 23.4507 23.5316 24.0241 22.7167 24.507C21.9622 24.9899 21.1171 25.3823 20.2117 25.6841C20.0608 25.7143 19.94 25.7746 19.8495 25.8048C19.7589 25.8048 19.7891 25.835 19.6986 25.835L19.5175 25.8954L19.1855 25.9859C19.095 25.9859 18.9742 26.0161 18.8233 26.0463C18.7328 26.0463 18.7328 26.0765 18.6422 26.0765L18.4612 26.1066C18.3404 26.1066 18.2499 26.1368 18.1292 26.167C17.9783 26.167 17.8575 26.167 17.767 26.1972H17.5859H17.4048C17.3143 26.2274 17.1936 26.2274 17.0426 26.2274H16.7107C16.5597 26.2274 16.439 26.2274 16.3485 26.1972H16.1674H15.9863L15.2921 26.1066C15.2016 26.1066 15.2016 26.0765 15.1111 26.0765H15.0507C15.0205 26.0765 14.9903 26.0463 14.9602 26.0463L14.598 25.9859L14.5376 25.9557H14.4471L14.266 25.8954C14.1754 25.8954 14.2056 25.8652 14.1151 25.8652L14.0245 25.835L13.934 25.8048L13.602 25.7143L13.5115 25.6841L13.4511 25.6539L13.27 25.5936C13.2398 25.5634 13.2097 25.5634 13.1191 25.5332L13.0286 25.503L12.9682 25.4728L12.6362 25.3521L12.5758 25.3219L12.4853 25.2616C12.4551 25.2616 12.4249 25.2314 12.3344 25.2012C12.2439 25.171 12.2137 25.1408 12.1835 25.1408L12.093 25.0805L12.0326 25.0503C10.3726 24.2354 9.04466 23.0282 8.10905 21.6097C7.62615 20.9155 7.2338 20.1911 6.93199 19.4366L6.87162 19.3159C6.87162 19.2254 6.84144 19.1952 6.84144 19.165C6.81126 19.1046 6.7509 19.0141 6.72072 18.8934C6.72072 18.8028 6.69054 18.833 6.69054 18.7425C6.66036 18.7123 6.66036 18.7123 6.66036 18.6821V18.6519C6.63018 18.5614 6.59999 18.5312 6.59999 18.501C6.59999 18.4105 6.56981 18.4406 6.56981 18.3501L6.47927 18.0785L6.38873 17.7767C6.38873 17.7465 6.35854 17.6258 6.32836 17.4748C6.32836 17.4145 6.29818 17.3239 6.268 17.2032V17.1127V17.0523C6.23782 17.0221 6.23782 16.9618 6.23782 16.9014C6.14728 16.1469 6.1171 15.3622 6.20764 14.668C6.268 13.9738 6.41891 13.2797 6.63017 12.6459C6.84144 11.9517 7.11307 11.4084 7.3847 10.9557C7.71669 10.4125 8.0185 9.95976 8.32032 9.59758C8.3505 9.53722 8.44104 9.44668 8.56176 9.32596L8.80321 9.05433L9.07484 8.7827L9.22575 8.66197L9.34647 8.54125L9.49738 8.42052C9.52756 8.39034 9.55774 8.32998 9.64828 8.2998L9.91991 8.05835C10.0406 7.99799 10.1312 7.93763 10.2217 7.84708C10.3424 7.75654 10.433 7.75654 10.5537 7.666L10.6744 7.57545C10.2821 7.72636 9.88973 7.84708 9.52756 8.05835C8.89376 8.39034 8.32032 8.7827 7.74688 9.26559C7.17343 9.71831 6.69054 10.2616 6.268 10.835C5.84547 11.4386 5.48329 12.0724 5.18148 12.7364C5.18148 12.827 5.1513 12.827 5.1513 12.8571L5.09094 13.008L5.03058 13.1288C5.03058 13.159 5.0004 13.2193 5.0004 13.2495L4.90985 13.5211L4.84949 13.6419L4.81931 13.7626C4.78913 13.8833 4.75895 13.9738 4.75895 14.0342C4.72877 14.0644 4.72877 14.0644 4.72877 14.0946V14.1851L4.69859 14.3058C4.6684 14.4266 4.63822 14.5171 4.63822 14.5775C4.60804 14.6982 4.57786 14.7887 4.57786 14.8491L4.54768 14.9698C4.54768 15.0302 4.54768 15.0905 4.5175 15.1207C4.5175 15.2414 4.5175 15.332 4.48732 15.3924C4.48732 15.5131 4.48732 15.6036 4.45714 15.664V15.9356C4.45714 16.0563 4.45714 16.1469 4.42696 16.2072V16.328V16.3883V16.4789V16.7505V16.8712C4.42696 16.9618 4.45714 16.9316 4.45714 17.0221C4.45714 17.2334 4.45714 17.3843 4.48732 17.5352C4.5175 17.5956 4.5175 17.6861 4.5175 17.8068C4.5175 17.8974 4.54768 17.8672 4.54768 17.9577L4.57786 18.0785C4.57786 18.169 4.60804 18.2596 4.60804 18.3501C4.63822 18.4708 4.6684 18.5614 4.6684 18.6217L4.72877 18.8632C4.75895 18.9839 4.78913 19.0744 4.78913 19.1348C5.0004 19.829 5.24185 20.493 5.57384 21.1268C5.90583 21.8209 6.23782 22.3642 6.63017 22.9376C6.72072 23.0282 6.69054 23.0583 6.78108 23.1489L6.93199 23.33L7.11307 23.5412L7.26398 23.7223C7.44506 23.9638 7.68651 24.2052 7.95814 24.4467C8.13923 24.6579 8.38068 24.8692 8.68249 25.1107C8.92394 25.3219 9.16539 25.4728 9.40683 25.6841C10.433 26.4084 11.4893 26.9517 12.5457 27.2837L12.6362 27.3441C12.6664 27.3441 12.6966 27.3441 12.7268 27.3742C12.7871 27.3742 12.8475 27.4044 12.938 27.4346C13.0286 27.4346 13.0286 27.4648 13.1191 27.4648C13.1493 27.495 13.1795 27.495 13.2097 27.495C13.2398 27.5252 13.27 27.5251 13.3002 27.5251L13.4813 27.5855C13.5718 27.5855 13.602 27.6157 13.6925 27.6157L14.0547 27.7062C14.5376 27.827 14.9903 27.8873 15.4431 27.9175Z" fill="#A371C2"/>
</svg>
