<svg width="14" height="14" viewBox="0 0 14 14" fill="none" xmlns="http://www.w3.org/2000/svg">
<path d="M13.4507 4.28169C13.8169 5.14084 14 6.05634 14 7C14 7.94366 13.8169 8.85915 13.4507 9.73239C13.0986 10.5634 12.5915 11.3099 11.9577 11.9437C11.2958 12.6056 10.5634 13.0986 9.73239 13.4507C8.85915 13.8169 7.94366 14 7 14C6.04225 14 5.14084 13.8169 4.28169 13.4507C3.4507 13.0986 2.70423 12.6056 2.05634 11.9437C1.39437 11.3099 0.915493 10.5775 0.563381 9.73239C0.183099 8.84507 0 7.92958 0 7C0 6.07042 0.183099 5.16901 0.563381 4.28169C0.915493 3.43662 1.39437 2.69014 2.05634 2.05634C2.70423 1.40845 3.4507 0.901409 4.28169 0.549296C5.14084 0.197183 6.04225 0 7 0C7.95775 0 8.84507 0.197183 9.73239 0.549296C10.5634 0.901409 11.2958 1.40845 11.9577 2.05634C12.5915 2.69014 13.0986 3.43662 13.4507 4.28169ZM6.92958 0.971831C3.67606 0.971831 1.25352 3.40845 0.985916 6.49296H1V6.40845L1.01408 6.3662V6.33803L1.04225 6.1831L1.07042 6.09859L1.08451 6.02817L1.12676 5.87324C1.12676 5.83099 1.14085 5.83099 1.14085 5.78873L1.16901 5.71831L1.1831 5.6338C1.19718 5.61972 1.19718 5.60563 1.21127 5.56338C1.3662 5.15493 1.52113 4.77465 1.74648 4.39437C1.97183 4.01408 2.25352 3.70423 2.5493 3.38028C2.87324 3.05634 3.19718 2.80282 3.57747 2.57746C3.95775 2.33803 4.35211 2.16901 4.76056 2.01408L4.91549 1.97183L5 1.94366L5.08451 1.92958L5.23944 1.88732L5.40845 1.84507C5.43662 1.84507 5.46479 1.84507 5.47887 1.83099L5.56338 1.8169C5.61972 1.8169 5.67606 1.80282 5.73239 1.80282L5.90141 1.78873C5.94366 1.78873 5.95775 1.77465 5.97183 1.77465H6.05634C6.11268 1.77465 6.16901 1.76056 6.22535 1.76056H6.39437C6.4507 1.76056 6.50704 1.77465 6.56338 1.77465H6.6338C6.67606 1.77465 6.70422 1.77465 6.71831 1.78873C6.83099 1.78873 6.94366 1.80282 7.04225 1.8169C7.05634 1.83099 7.08451 1.83099 7.12676 1.83099L7.16901 1.84507H7.21127L7.3662 1.88732H7.40845C7.42253 1.88732 7.43662 1.90141 7.4507 1.90141C7.49296 1.90141 7.47887 1.91549 7.52113 1.91549L7.60563 1.94366H7.64789L7.67606 1.95775C7.74648 1.97183 7.80282 2 7.83099 2.01408H7.87324L7.91549 2.02817C7.95775 2.04225 7.97183 2.05634 7.98591 2.05634C8.02817 2.07042 8.05634 2.08451 8.07042 2.08451L8.09859 2.09859L8.14084 2.11268C8.1831 2.15493 8.23944 2.14084 8.28169 2.1831L8.32394 2.19718L8.3662 2.21127C8.38028 2.22535 8.40845 2.23944 8.43662 2.23944C8.4507 2.25352 8.46479 2.26761 8.50704 2.28169L8.53521 2.29577L8.57746 2.30986C9.32394 2.70423 9.95775 3.25352 10.4084 3.91549C10.6338 4.23944 10.8169 4.57746 10.9437 4.92958C10.9577 4.97183 10.9718 4.98592 10.9718 5L11 5.05634L11.0423 5.19718L11.0704 5.25352C11.0704 5.29577 11.0845 5.30986 11.0845 5.32394L11.1268 5.46479C11.1408 5.52113 11.1549 5.56338 11.1549 5.59155L11.1972 5.73239C11.1972 5.77465 11.2113 5.8169 11.2113 5.87324L11.2254 5.90141V5.92958C11.2254 5.97183 11.2394 5.98592 11.2394 6C11.2817 6.38028 11.2958 6.71831 11.2535 7.05634C11.2113 7.39437 11.1549 7.70423 11.0563 8C10.9577 8.28169 10.831 8.5493 10.7042 8.78873C10.5493 9.01408 10.4225 9.22535 10.2676 9.40845C10.2535 9.43662 10.2113 9.47887 10.1549 9.53521L10.0423 9.67606L9.91549 9.78873L9.84507 9.84507C9.83098 9.88732 9.80282 9.87324 9.78873 9.91549L9.71831 9.97183L9.64789 10.0282C9.60563 10.0704 9.56338 10.0845 9.52113 10.1268L9.38028 10.2254C9.32394 10.2676 9.2676 10.3099 9.22535 10.3239C9.21127 10.338 9.1831 10.3521 9.16901 10.3521C9.35211 10.2958 9.53521 10.2254 9.70423 10.1268C10.0141 9.97183 10.2958 9.78873 10.5352 9.57746C10.8028 9.33803 11.0423 9.08451 11.2254 8.83099C11.4366 8.56338 11.5775 8.26761 11.7324 7.94366C11.7324 7.92958 11.7465 7.90141 11.7465 7.88732L11.7746 7.83099L11.8028 7.77465C11.8028 7.73239 11.8169 7.74648 11.8169 7.70422L11.8592 7.59155L11.8732 7.52113L11.9014 7.46479L11.9296 7.33803C11.9296 7.33803 11.9296 7.32394 11.9437 7.30986V7.28169L11.9577 7.21127C11.9718 7.16901 11.9859 7.14084 11.9859 7.09859L12.0141 6.97183L12.0282 6.90141V6.84507L12.0563 6.71831V6.59155C12.0704 6.56338 12.0704 6.52113 12.0704 6.46479V6.33803L12.0845 6.26761V6.23944V6.21127C12.0845 6.15493 12.0845 6.11268 12.0704 6.08451V6.01408V5.95775C12.0704 5.85915 12.0563 5.80282 12.0563 5.70422C12.0423 5.67606 12.0423 5.6338 12.0423 5.57746C12.0282 5.56338 12.0282 5.5493 12.0282 5.52113L12.0141 5.4507C12.0141 5.40845 12 5.3662 12 5.32394C11.9859 5.28169 11.9718 5.25352 11.9718 5.21127C11.9577 5.15493 11.9437 5.11268 11.9437 5.08451L11.9014 4.95775L11.8451 4.76056C11.7746 4.53521 11.6901 4.32394 11.5915 4.14085C11.4366 3.83099 11.2676 3.5493 11.0845 3.30986C11.0704 3.28169 11.0563 3.25352 11.0141 3.21127C11 3.16901 10.9718 3.14084 10.9437 3.11268L10.8732 3.02817C10.831 2.98592 10.8169 2.97183 10.8028 2.92958L10.4789 2.59155L10.1408 2.28169C10.0282 2.1831 9.91549 2.11268 9.78873 2.01408C9.29577 1.67606 8.83099 1.43662 8.33803 1.26761C8.32394 1.26761 8.29577 1.25352 8.28169 1.25352C8.2676 1.23944 8.25352 1.23944 8.23944 1.23944C8.19718 1.22535 8.16901 1.21127 8.15493 1.21127L8.07042 1.1831C8.05634 1.1831 8.05634 1.16901 8.01408 1.16901C8 1.16901 7.98592 1.15493 7.97183 1.15493C7.95775 1.15493 7.92958 1.14085 7.88732 1.12676C7.84507 1.12676 7.84507 1.11268 7.80282 1.11268L7.6338 1.07042C7.40845 1.02817 6.94366 0.971831 6.92958 0.971831ZM9.70423 7C9.70423 5.56338 8.53521 4.39437 7.09859 4.39437C5.64789 4.39437 4.47887 5.56338 4.47887 7C4.47887 8.43662 5.64789 9.60563 7.09859 9.60563C8.53521 9.60563 9.70423 8.43662 9.70423 7ZM7.02817 13.0282H7.08451C10.3521 13.1408 12.7465 10.5915 13.0141 7.50704V7.52113L13 7.59155V7.6338C13 7.64789 12.9859 7.66197 12.9859 7.67606C12.9859 7.70423 12.9718 7.76056 12.9577 7.83099L12.9437 7.90141L12.9296 7.98592L12.8873 8.14084C12.8873 8.15493 12.8732 8.16901 12.8592 8.21127L12.8169 8.3662C12.8169 8.40845 12.8028 8.42253 12.8028 8.43662C12.662 8.85915 12.4789 9.25352 12.2535 9.60563C12.0282 9.97183 11.7606 10.3099 11.4507 10.6197C11.1268 10.9437 10.8028 11.2113 10.4225 11.4366C10.0704 11.662 9.67606 11.8451 9.25352 11.9859C9.1831 12 9.12676 12.0282 9.08451 12.0423C9.04225 12.0423 9.05634 12.0563 9.01408 12.0563L8.92958 12.0845L8.77465 12.1268C8.73239 12.1268 8.67606 12.1408 8.60563 12.1549C8.56338 12.1549 8.56338 12.169 8.52113 12.169L8.43662 12.1831C8.38028 12.1831 8.33803 12.1972 8.28169 12.2113C8.21127 12.2113 8.15493 12.2113 8.11268 12.2254H8.02817H7.94366C7.90141 12.2394 7.84507 12.2394 7.77465 12.2394H7.61972C7.54929 12.2394 7.49296 12.2394 7.4507 12.2254H7.3662H7.28169L6.95775 12.1831C6.91549 12.1831 6.91549 12.169 6.87324 12.169H6.84507C6.83099 12.169 6.8169 12.1549 6.80282 12.1549L6.6338 12.1268L6.60563 12.1127H6.56338L6.47887 12.0845C6.43662 12.0845 6.4507 12.0704 6.40845 12.0704L6.3662 12.0563L6.32394 12.0423L6.16901 12L6.12676 11.9859L6.09859 11.9718L6.01408 11.9437C6 11.9296 5.98592 11.9296 5.94366 11.9155L5.90141 11.9014L5.87324 11.8873L5.71831 11.831L5.69014 11.8169L5.64789 11.7887C5.6338 11.7887 5.61972 11.7746 5.57747 11.7606C5.53521 11.7465 5.52113 11.7324 5.50704 11.7324L5.46479 11.7042L5.43662 11.6901C4.66197 11.3099 4.04225 10.7465 3.60563 10.0845C3.38028 9.76056 3.19718 9.42253 3.05634 9.07042L3.02817 9.01408C3.02817 8.97183 3.01408 8.95775 3.01408 8.94366C3 8.91549 2.97183 8.87324 2.95775 8.8169C2.95775 8.77465 2.94366 8.78873 2.94366 8.74648C2.92958 8.73239 2.92958 8.73239 2.92958 8.71831V8.70422C2.91549 8.66197 2.90141 8.64789 2.90141 8.6338C2.90141 8.59155 2.88732 8.60563 2.88732 8.56338L2.84507 8.43662L2.80282 8.29577C2.80282 8.28169 2.78873 8.22535 2.77465 8.15493C2.77465 8.12676 2.76056 8.08451 2.74648 8.02817V7.98592V7.95775C2.73239 7.94366 2.73239 7.91549 2.73239 7.88732C2.69014 7.53521 2.67606 7.16901 2.71831 6.84507C2.74648 6.52113 2.8169 6.19718 2.91549 5.90141C3.01408 5.57746 3.14084 5.32394 3.26761 5.11268C3.42254 4.85915 3.56338 4.64789 3.70423 4.47887C3.71831 4.4507 3.76056 4.40845 3.8169 4.35211L3.92958 4.22535L4.05634 4.09859L4.12676 4.04225L4.1831 3.98591L4.25352 3.92958C4.26761 3.91549 4.28169 3.88732 4.32394 3.87324L4.4507 3.76056C4.50704 3.73239 4.5493 3.70423 4.59155 3.66197C4.64789 3.61972 4.69014 3.61972 4.74648 3.57746L4.80282 3.53521C4.61972 3.60563 4.43662 3.66197 4.26761 3.76056C3.97183 3.91549 3.70423 4.09859 3.43662 4.32394C3.16901 4.53521 2.94366 4.78873 2.74648 5.05634C2.5493 5.33803 2.38028 5.6338 2.23944 5.94366C2.23944 5.98591 2.22535 5.98592 2.22535 6L2.19718 6.07042L2.16901 6.12676C2.16901 6.14084 2.15493 6.16901 2.15493 6.1831L2.11268 6.30986L2.08451 6.3662L2.07042 6.42254C2.05634 6.47887 2.04225 6.52113 2.04225 6.5493C2.02817 6.56338 2.02817 6.56338 2.02817 6.57746V6.61972L2.01408 6.67606C2 6.73239 1.98592 6.77465 1.98592 6.80282C1.97183 6.85915 1.95775 6.90141 1.95775 6.92958L1.94366 6.98591C1.94366 7.01408 1.94366 7.04225 1.92958 7.05634C1.92958 7.11268 1.92958 7.15493 1.91549 7.1831C1.91549 7.23944 1.91549 7.28169 1.90141 7.30986V7.43662C1.90141 7.49296 1.90141 7.53521 1.88732 7.56338V7.61972V7.64789V7.69014V7.8169V7.87324C1.88732 7.91549 1.90141 7.90141 1.90141 7.94366C1.90141 8.04225 1.90141 8.11268 1.91549 8.1831C1.92958 8.21127 1.92958 8.25352 1.92958 8.30986C1.92958 8.35211 1.94366 8.33803 1.94366 8.38028L1.95775 8.43662C1.95775 8.47887 1.97183 8.52113 1.97183 8.56338C1.98592 8.61972 2 8.66197 2 8.69014L2.02817 8.80282C2.04225 8.85915 2.05634 8.90141 2.05634 8.92958C2.15493 9.25352 2.26761 9.56338 2.42254 9.85915C2.57747 10.1831 2.73239 10.4366 2.91549 10.7042C2.95775 10.7465 2.94366 10.7606 2.98592 10.8028L3.05634 10.8873L3.14084 10.9859L3.21127 11.0704C3.29577 11.1831 3.40845 11.2958 3.53521 11.4085C3.61972 11.507 3.73239 11.6056 3.87324 11.7183C3.98592 11.8169 4.09859 11.8873 4.21127 11.9859C4.69014 12.3239 5.1831 12.5775 5.67606 12.7324L5.71831 12.7606C5.73239 12.7606 5.74648 12.7606 5.76056 12.7746C5.78873 12.7746 5.8169 12.7887 5.85915 12.8028C5.90141 12.8028 5.90141 12.8169 5.94366 12.8169C5.95775 12.831 5.97183 12.831 5.98592 12.831C6 12.8451 6.01408 12.8451 6.02817 12.8451L6.11268 12.8732C6.15493 12.8732 6.16901 12.8873 6.21127 12.8873L6.38028 12.9296C6.60563 12.9859 6.8169 13.0141 7.02817 13.0282Z" fill="#A371C2"/>
<path d="M13.4507 4.28169C13.8169 5.14084 14 6.05634 14 7C14 7.94366 13.8169 8.85915 13.4507 9.73239C13.0986 10.5634 12.5915 11.3099 11.9577 11.9437C11.2958 12.6056 10.5634 13.0986 9.73239 13.4507C8.85915 13.8169 7.94366 14 7 14C6.04225 14 5.14084 13.8169 4.28169 13.4507C3.4507 13.0986 2.70423 12.6056 2.05634 11.9437C1.39437 11.3099 0.915493 10.5775 0.563381 9.73239C0.183099 8.84507 0 7.92958 0 7C0 6.07042 0.183099 5.16901 0.563381 4.28169C0.915493 3.43662 1.39437 2.69014 2.05634 2.05634C2.70423 1.40845 3.4507 0.901409 4.28169 0.549296C5.14084 0.197183 6.04225 0 7 0C7.95775 0 8.84507 0.197183 9.73239 0.549296C10.5634 0.901409 11.2958 1.40845 11.9577 2.05634C12.5915 2.69014 13.0986 3.43662 13.4507 4.28169ZM6.92958 0.971831C3.67606 0.971831 1.25352 3.40845 0.985916 6.49296H1V6.40845L1.01408 6.3662V6.33803L1.04225 6.1831L1.07042 6.09859L1.08451 6.02817L1.12676 5.87324C1.12676 5.83099 1.14085 5.83099 1.14085 5.78873L1.16901 5.71831L1.1831 5.6338C1.19718 5.61972 1.19718 5.60563 1.21127 5.56338C1.3662 5.15493 1.52113 4.77465 1.74648 4.39437C1.97183 4.01408 2.25352 3.70423 2.5493 3.38028C2.87324 3.05634 3.19718 2.80282 3.57747 2.57746C3.95775 2.33803 4.35211 2.16901 4.76056 2.01408L4.91549 1.97183L5 1.94366L5.08451 1.92958L5.23944 1.88732L5.40845 1.84507C5.43662 1.84507 5.46479 1.84507 5.47887 1.83099L5.56338 1.8169C5.61972 1.8169 5.67606 1.80282 5.73239 1.80282L5.90141 1.78873C5.94366 1.78873 5.95775 1.77465 5.97183 1.77465H6.05634C6.11268 1.77465 6.16901 1.76056 6.22535 1.76056H6.39437C6.4507 1.76056 6.50704 1.77465 6.56338 1.77465H6.6338C6.67606 1.77465 6.70422 1.77465 6.71831 1.78873C6.83099 1.78873 6.94366 1.80282 7.04225 1.8169C7.05634 1.83099 7.08451 1.83099 7.12676 1.83099L7.16901 1.84507H7.21127L7.3662 1.88732H7.40845C7.42253 1.88732 7.43662 1.90141 7.4507 1.90141C7.49296 1.90141 7.47887 1.91549 7.52113 1.91549L7.60563 1.94366H7.64789L7.67606 1.95775C7.74648 1.97183 7.80282 2 7.83099 2.01408H7.87324L7.91549 2.02817C7.95775 2.04225 7.97183 2.05634 7.98591 2.05634C8.02817 2.07042 8.05634 2.08451 8.07042 2.08451L8.09859 2.09859L8.14084 2.11268C8.1831 2.15493 8.23944 2.14084 8.28169 2.1831L8.32394 2.19718L8.3662 2.21127C8.38028 2.22535 8.40845 2.23944 8.43662 2.23944C8.4507 2.25352 8.46479 2.26761 8.50704 2.28169L8.53521 2.29577L8.57746 2.30986C9.32394 2.70423 9.95775 3.25352 10.4084 3.91549C10.6338 4.23944 10.8169 4.57746 10.9437 4.92958C10.9577 4.97183 10.9718 4.98592 10.9718 5L11 5.05634L11.0423 5.19718L11.0704 5.25352C11.0704 5.29577 11.0845 5.30986 11.0845 5.32394L11.1268 5.46479C11.1408 5.52113 11.1549 5.56338 11.1549 5.59155L11.1972 5.73239C11.1972 5.77465 11.2113 5.8169 11.2113 5.87324L11.2254 5.90141V5.92958C11.2254 5.97183 11.2394 5.98592 11.2394 6C11.2817 6.38028 11.2958 6.71831 11.2535 7.05634C11.2113 7.39437 11.1549 7.70423 11.0563 8C10.9577 8.28169 10.831 8.5493 10.7042 8.78873C10.5493 9.01408 10.4225 9.22535 10.2676 9.40845C10.2535 9.43662 10.2113 9.47887 10.1549 9.53521L10.0423 9.67606L9.91549 9.78873L9.84507 9.84507C9.83098 9.88732 9.80282 9.87324 9.78873 9.91549L9.71831 9.97183L9.64789 10.0282C9.60563 10.0704 9.56338 10.0845 9.52113 10.1268L9.38028 10.2254C9.32394 10.2676 9.2676 10.3099 9.22535 10.3239C9.21127 10.338 9.1831 10.3521 9.16901 10.3521C9.35211 10.2958 9.53521 10.2254 9.70423 10.1268C10.0141 9.97183 10.2958 9.78873 10.5352 9.57746C10.8028 9.33803 11.0423 9.08451 11.2254 8.83099C11.4366 8.56338 11.5775 8.26761 11.7324 7.94366C11.7324 7.92958 11.7465 7.90141 11.7465 7.88732L11.7746 7.83099L11.8028 7.77465C11.8028 7.73239 11.8169 7.74648 11.8169 7.70422L11.8592 7.59155L11.8732 7.52113L11.9014 7.46479L11.9296 7.33803C11.9296 7.33803 11.9296 7.32394 11.9437 7.30986V7.28169L11.9577 7.21127C11.9718 7.16901 11.9859 7.14084 11.9859 7.09859L12.0141 6.97183L12.0282 6.90141V6.84507L12.0563 6.71831V6.59155C12.0704 6.56338 12.0704 6.52113 12.0704 6.46479V6.33803L12.0845 6.26761V6.23944V6.21127C12.0845 6.15493 12.0845 6.11268 12.0704 6.08451V6.01408V5.95775C12.0704 5.85915 12.0563 5.80282 12.0563 5.70422C12.0423 5.67606 12.0423 5.6338 12.0423 5.57746C12.0282 5.56338 12.0282 5.5493 12.0282 5.52113L12.0141 5.4507C12.0141 5.40845 12 5.3662 12 5.32394C11.9859 5.28169 11.9718 5.25352 11.9718 5.21127C11.9577 5.15493 11.9437 5.11268 11.9437 5.08451L11.9014 4.95775L11.8451 4.76056C11.7746 4.53521 11.6901 4.32394 11.5915 4.14085C11.4366 3.83099 11.2676 3.5493 11.0845 3.30986C11.0704 3.28169 11.0563 3.25352 11.0141 3.21127C11 3.16901 10.9718 3.14084 10.9437 3.11268L10.8732 3.02817C10.831 2.98592 10.8169 2.97183 10.8028 2.92958L10.4789 2.59155L10.1408 2.28169C10.0282 2.1831 9.91549 2.11268 9.78873 2.01408C9.29577 1.67606 8.83099 1.43662 8.33803 1.26761C8.32394 1.26761 8.29577 1.25352 8.28169 1.25352C8.2676 1.23944 8.25352 1.23944 8.23944 1.23944C8.19718 1.22535 8.16901 1.21127 8.15493 1.21127L8.07042 1.1831C8.05634 1.1831 8.05634 1.16901 8.01408 1.16901C8 1.16901 7.98592 1.15493 7.97183 1.15493C7.95775 1.15493 7.92958 1.14085 7.88732 1.12676C7.84507 1.12676 7.84507 1.11268 7.80282 1.11268L7.6338 1.07042C7.40845 1.02817 6.94366 0.971831 6.92958 0.971831ZM9.70423 7C9.70423 5.56338 8.53521 4.39437 7.09859 4.39437C5.64789 4.39437 4.47887 5.56338 4.47887 7C4.47887 8.43662 5.64789 9.60563 7.09859 9.60563C8.53521 9.60563 9.70423 8.43662 9.70423 7ZM7.02817 13.0282H7.08451C10.3521 13.1408 12.7465 10.5915 13.0141 7.50704V7.52113L13 7.59155V7.6338C13 7.64789 12.9859 7.66197 12.9859 7.67606C12.9859 7.70423 12.9718 7.76056 12.9577 7.83099L12.9437 7.90141L12.9296 7.98592L12.8873 8.14084C12.8873 8.15493 12.8732 8.16901 12.8592 8.21127L12.8169 8.3662C12.8169 8.40845 12.8028 8.42253 12.8028 8.43662C12.662 8.85915 12.4789 9.25352 12.2535 9.60563C12.0282 9.97183 11.7606 10.3099 11.4507 10.6197C11.1268 10.9437 10.8028 11.2113 10.4225 11.4366C10.0704 11.662 9.67606 11.8451 9.25352 11.9859C9.1831 12 9.12676 12.0282 9.08451 12.0423C9.04225 12.0423 9.05634 12.0563 9.01408 12.0563L8.92958 12.0845L8.77465 12.1268C8.73239 12.1268 8.67606 12.1408 8.60563 12.1549C8.56338 12.1549 8.56338 12.169 8.52113 12.169L8.43662 12.1831C8.38028 12.1831 8.33803 12.1972 8.28169 12.2113C8.21127 12.2113 8.15493 12.2113 8.11268 12.2254H8.02817H7.94366C7.90141 12.2394 7.84507 12.2394 7.77465 12.2394H7.61972C7.54929 12.2394 7.49296 12.2394 7.4507 12.2254H7.3662H7.28169L6.95775 12.1831C6.91549 12.1831 6.91549 12.169 6.87324 12.169H6.84507C6.83099 12.169 6.8169 12.1549 6.80282 12.1549L6.6338 12.1268L6.60563 12.1127H6.56338L6.47887 12.0845C6.43662 12.0845 6.4507 12.0704 6.40845 12.0704L6.3662 12.0563L6.32394 12.0423L6.16901 12L6.12676 11.9859L6.09859 11.9718L6.01408 11.9437C6 11.9296 5.98592 11.9296 5.94366 11.9155L5.90141 11.9014L5.87324 11.8873L5.71831 11.831L5.69014 11.8169L5.64789 11.7887C5.6338 11.7887 5.61972 11.7746 5.57747 11.7606C5.53521 11.7465 5.52113 11.7324 5.50704 11.7324L5.46479 11.7042L5.43662 11.6901C4.66197 11.3099 4.04225 10.7465 3.60563 10.0845C3.38028 9.76056 3.19718 9.42253 3.05634 9.07042L3.02817 9.01408C3.02817 8.97183 3.01408 8.95775 3.01408 8.94366C3 8.91549 2.97183 8.87324 2.95775 8.8169C2.95775 8.77465 2.94366 8.78873 2.94366 8.74648C2.92958 8.73239 2.92958 8.73239 2.92958 8.71831V8.70422C2.91549 8.66197 2.90141 8.64789 2.90141 8.6338C2.90141 8.59155 2.88732 8.60563 2.88732 8.56338L2.84507 8.43662L2.80282 8.29577C2.80282 8.28169 2.78873 8.22535 2.77465 8.15493C2.77465 8.12676 2.76056 8.08451 2.74648 8.02817V7.98592V7.95775C2.73239 7.94366 2.73239 7.91549 2.73239 7.88732C2.69014 7.53521 2.67606 7.16901 2.71831 6.84507C2.74648 6.52113 2.8169 6.19718 2.91549 5.90141C3.01408 5.57746 3.14084 5.32394 3.26761 5.11268C3.42254 4.85915 3.56338 4.64789 3.70423 4.47887C3.71831 4.4507 3.76056 4.40845 3.8169 4.35211L3.92958 4.22535L4.05634 4.09859L4.12676 4.04225L4.1831 3.98591L4.25352 3.92958C4.26761 3.91549 4.28169 3.88732 4.32394 3.87324L4.4507 3.76056C4.50704 3.73239 4.5493 3.70423 4.59155 3.66197C4.64789 3.61972 4.69014 3.61972 4.74648 3.57746L4.80282 3.53521C4.61972 3.60563 4.43662 3.66197 4.26761 3.76056C3.97183 3.91549 3.70423 4.09859 3.43662 4.32394C3.16901 4.53521 2.94366 4.78873 2.74648 5.05634C2.5493 5.33803 2.38028 5.6338 2.23944 5.94366C2.23944 5.98591 2.22535 5.98592 2.22535 6L2.19718 6.07042L2.16901 6.12676C2.16901 6.14084 2.15493 6.16901 2.15493 6.1831L2.11268 6.30986L2.08451 6.3662L2.07042 6.42254C2.05634 6.47887 2.04225 6.52113 2.04225 6.5493C2.02817 6.56338 2.02817 6.56338 2.02817 6.57746V6.61972L2.01408 6.67606C2 6.73239 1.98592 6.77465 1.98592 6.80282C1.97183 6.85915 1.95775 6.90141 1.95775 6.92958L1.94366 6.98591C1.94366 7.01408 1.94366 7.04225 1.92958 7.05634C1.92958 7.11268 1.92958 7.15493 1.91549 7.1831C1.91549 7.23944 1.91549 7.28169 1.90141 7.30986V7.43662C1.90141 7.49296 1.90141 7.53521 1.88732 7.56338V7.61972V7.64789V7.69014V7.8169V7.87324C1.88732 7.91549 1.90141 7.90141 1.90141 7.94366C1.90141 8.04225 1.90141 8.11268 1.91549 8.1831C1.92958 8.21127 1.92958 8.25352 1.92958 8.30986C1.92958 8.35211 1.94366 8.33803 1.94366 8.38028L1.95775 8.43662C1.95775 8.47887 1.97183 8.52113 1.97183 8.56338C1.98592 8.61972 2 8.66197 2 8.69014L2.02817 8.80282C2.04225 8.85915 2.05634 8.90141 2.05634 8.92958C2.15493 9.25352 2.26761 9.56338 2.42254 9.85915C2.57747 10.1831 2.73239 10.4366 2.91549 10.7042C2.95775 10.7465 2.94366 10.7606 2.98592 10.8028L3.05634 10.8873L3.14084 10.9859L3.21127 11.0704C3.29577 11.1831 3.40845 11.2958 3.53521 11.4085C3.61972 11.507 3.73239 11.6056 3.87324 11.7183C3.98592 11.8169 4.09859 11.8873 4.21127 11.9859C4.69014 12.3239 5.1831 12.5775 5.67606 12.7324L5.71831 12.7606C5.73239 12.7606 5.74648 12.7606 5.76056 12.7746C5.78873 12.7746 5.8169 12.7887 5.85915 12.8028C5.90141 12.8028 5.90141 12.8169 5.94366 12.8169C5.95775 12.831 5.97183 12.831 5.98592 12.831C6 12.8451 6.01408 12.8451 6.02817 12.8451L6.11268 12.8732C6.15493 12.8732 6.16901 12.8873 6.21127 12.8873L6.38028 12.9296C6.60563 12.9859 6.8169 13.0141 7.02817 13.0282Z" fill="#A371C2"/>
</svg>
