<svg width="20" height="20" viewBox="0 0 20 20" fill="none" xmlns="http://www.w3.org/2000/svg">
<path d="M5.5023 8.33342L8.33328 6.01713V13.983L5.5023 11.6667H2.49995V8.33342H5.5023ZM1.66662 13.3334H4.90736L9.31945 16.9432C9.39387 17.0042 9.48712 17.0374 9.58328 17.0374C9.81337 17.0374 9.99995 16.8509 9.99995 16.6208V3.37932C9.99995 3.28314 9.9667 3.18992 9.90578 3.11547C9.76003 2.93737 9.49753 2.91112 9.31945 3.05684L4.90736 6.66672H1.66662C1.20638 6.66672 0.833282 7.03982 0.833282 7.50006V12.5001C0.833282 12.9603 1.20638 13.3334 1.66662 13.3334ZM19.1666 10C19.1666 12.7433 17.9615 15.2052 16.0518 16.8852L14.8704 15.7037C16.4798 14.3281 17.4999 12.2832 17.4999 10C17.4999 7.7168 16.4798 5.67191 14.8704 4.29631L16.0518 3.11482C17.9615 4.79473 19.1666 7.25662 19.1666 10ZM14.9999 10C14.9999 8.40692 14.2549 6.9879 13.0944 6.07227L11.9034 7.2632C12.7677 7.86546 13.3333 8.86667 13.3333 10C13.3333 11.1333 12.7677 12.1345 11.9034 12.7367L13.0944 13.9277C14.2549 13.0121 14.9999 11.593 14.9999 10Z" fill="#988BC7"/>
</svg>
