<svg width="20" height="20" viewBox="0 0 20 20" fill="none" xmlns="http://www.w3.org/2000/svg">
<path d="M8.33331 6.01713L5.50233 8.33342H2.49998V11.6668H5.50233L8.33331 13.983V6.01713ZM4.90739 13.3334H1.66665C1.20641 13.3334 0.833313 12.9603 0.833313 12.5001V7.50006C0.833313 7.03982 1.20641 6.66672 1.66665 6.66672H4.90739L9.31948 3.05684C9.49756 2.91112 9.76006 2.93737 9.90581 3.11547C9.96673 3.18992 9.99998 3.28314 9.99998 3.37932V16.6208C9.99998 16.8509 9.8134 17.0374 9.58331 17.0374C9.48715 17.0374 9.3939 17.0042 9.31948 16.9433L4.90739 13.3334ZM17.0118 10.0001L19.9581 12.9463L18.7796 14.1248L15.8333 11.1786L12.8871 14.1248L11.7086 12.9463L14.6548 10.0001L11.7086 7.05378L12.8871 5.87527L15.8333 8.82158L18.7796 5.87527L19.9581 7.05378L17.0118 10.0001Z" fill="#988BC7"/>
</svg>
