<svg width="20" height="20" viewBox="0 0 20 20" fill="none" xmlns="http://www.w3.org/2000/svg">
<path d="M10.8333 6.01713L8.00233 8.33342H4.99998V11.6668H8.00233L10.8333 13.983V6.01713ZM7.40739 13.3334H4.16665C3.70641 13.3334 3.33331 12.9603 3.33331 12.5001V7.50006C3.33331 7.03982 3.70641 6.66672 4.16665 6.66672H7.40739L11.8195 3.05684C11.9976 2.91112 12.2601 2.93737 12.4058 3.11547C12.4667 3.18992 12.5 3.28314 12.5 3.37932V16.6208C12.5 16.8509 12.3134 17.0374 12.0833 17.0374C11.9871 17.0374 11.8939 17.0042 11.8195 16.9433L7.40739 13.3334ZM15.7192 13.8259L14.5342 12.6409C15.3243 12.0313 15.8333 11.0752 15.8333 10.0001C15.8333 8.80808 15.2077 7.7623 14.2669 7.17305L15.4657 5.97422C16.6996 6.88472 17.5 8.34892 17.5 10.0001C17.5 11.5352 16.8081 12.9088 15.7192 13.8259Z" fill="#988BC7"/>
</svg>
